<?xml version="1.0" encoding="utf-8"?>
<!-- Generator: Adobe Illustrator 27.4.1, SVG Export Plug-In . SVG Version: 6.00 Build 0)  -->
<svg version="1.1" id="Layer_1" xmlns="http://www.w3.org/2000/svg" xmlns:xlink="http://www.w3.org/1999/xlink" x="0px" y="0px"
	 viewBox="0 0 181.42 181.42" style="enable-background:new 0 0 181.42 181.42;" xml:space="preserve">
<style type="text/css">
	.st0{fill:#FFFFFF;}
	.st1{fill-rule:evenodd;clip-rule:evenodd;fill:#FFFFFF;}
</style>
<g>
	<g>
		<path class="st0" d="M91.15,4.63c47.52,0,86.28,38.76,86.28,86.28c0,47.52-38.76,86.29-86.28,86.29
			c-47.52,0-86.28-38.76-86.28-86.29C4.87,43.39,43.63,4.63,91.15,4.63 M91.15,8.08c-45.63,0-82.84,37.21-82.84,82.84
			c0,45.63,37.21,82.84,82.84,82.84c45.63,0,82.84-37.22,82.84-82.84C174,45.29,136.78,8.08,91.15,8.08"/>
		<path class="st0" d="M60.85,127.69c-5.4-4.47-9.81-10.09-12.84-16.49c-2.91-6.17-4.54-13.04-4.54-20.29
			c0-26.27,21.42-47.69,47.69-47.69c26.26,0,47.69,21.42,47.69,47.69c0,7.25-1.63,14.12-4.55,20.29
			c-3.03,6.4-7.44,12.02-12.84,16.49l-1.09-1.32c5.21-4.3,9.46-9.73,12.38-15.9c2.8-5.93,4.38-12.57,4.38-19.55
			c0-25.32-20.65-45.97-45.97-45.97c-25.32,0-45.97,20.65-45.97,45.97c0,6.99,1.57,13.62,4.37,19.55c2.92,6.17,7.17,11.6,12.38,15.9
			L60.85,127.69z"/>
		<polygon class="st1" points="17.27,119.72 14.01,110.99 15.79,110.37 30.71,112.64 28.43,106.52 30.2,105.9 33.18,113.9 
			31.4,114.51 16.49,112.25 19.04,119.1 		"/>
		<polygon class="st1" points="22.95,131.62 22.05,129.88 29.06,126.27 26.84,121.95 19.83,125.55 18.93,123.81 33.92,116.1 
			34.82,117.84 28.5,121.09 30.72,125.41 37.04,122.17 37.94,123.91 		"/>
		<polygon class="st1" points="30.06,141.12 24.73,133.68 38.79,124.95 43.86,132.02 42.3,132.99 38.43,127.6 34.07,130.31 
			37.62,135.26 36.06,136.23 32.51,131.27 27.49,134.39 31.62,140.15 		"/>
		<polygon class="st1" points="42.01,152.81 40.23,151.31 50.57,138.59 52.36,140.1 		"/>
		<path class="st1" d="M50.03,158.41l2.12-4.5l-2.57-1.86l-3.82,3.72L44,154.41l12.14-11.98l2.43,1.48l-6.46,15.67L50.03,158.41z
			 M53.12,151.71l2.53-5.82l-0.23-0.19l-4.37,4.46L53.12,151.71z"/>
		<polygon class="st1" points="62.19,164.29 60,163.27 61.28,151.58 56.48,161.41 54.3,160.4 61.9,145.35 63.88,146.26 
			62.96,157.38 67.9,148.2 69.74,148.96 		"/>
		<path class="st1" d="M73.51,167.67l-1.41-0.47l0.13-1.33c-0.33,0.29-0.77,0.47-1.31,0.55c-0.55,0.09-1.1,0.04-1.65-0.15
			c-1.17-0.38-2.03-1.29-2.59-2.75c-0.56-1.45-0.45-3.46,0.34-6c0.86-2.78,1.92-4.72,3.17-5.81c1.25-1.08,3.15-1.69,4.84-1.15
			c1.81,0.58,2.99,2.81,2.47,5.89l-2.17-0.18c0.37-1.32,0.18-3.38-1.11-3.8c-1.05-0.34-2.22-0.02-2.96,0.82
			c-0.74,0.83-1.47,2.4-2.18,4.71c-0.68,2.19-0.87,3.79-0.57,4.79c0.3,1.01,0.81,1.64,1.53,1.87c0.72,0.23,1.37,0.14,1.96-0.29
			c0.59-0.41,1.07-1.23,1.43-2.41l0.3-0.98l-2.59-0.84l0.53-1.69l4.25,1.38L73.51,167.67z"/>
		<path class="st1" d="M95.94,163.96c-0.05,1.52-0.46,2.71-1.22,3.57c-0.76,0.85-1.93,1.25-3.52,1.19
			c-1.58-0.05-2.73-0.54-3.43-1.46c-0.7-0.91-1.03-2.13-0.98-3.65l0.38-11.49l2.02,0.08l-0.37,11.48c-0.04,1.08,0.18,1.88,0.63,2.4
			c0.45,0.53,1.06,0.8,1.82,0.83c0.76,0.03,1.39-0.21,1.87-0.7c0.48-0.49,0.75-1.27,0.78-2.35l0.37-11.48l2.02,0.07L95.94,163.96z"
			/>
		<polygon class="st1" points="107.45,167.02 105.65,167.3 99.96,156.33 100.82,168.1 98.68,168.41 97.42,151.91 99.89,151.68 
			104.59,159.36 103.71,151.09 105.5,150.78 		"/>
		<polygon class="st1" points="113.61,165.29 111.5,165.93 107.1,150.32 109.22,149.67 		"/>
		<polygon class="st1" points="119.33,145.5 122,162.75 119.91,163.77 110.78,149.13 112.78,148.28 119.14,158.27 117.38,146.34 		
			"/>
		<polygon class="st1" points="136.29,155.27 128.58,159.44 120.19,145.03 127.52,141.07 128.45,142.67 122.86,145.69 
			125.46,150.16 130.6,147.38 131.53,148.98 126.39,151.76 129.39,156.9 135.36,153.67 		"/>
		<path class="st1" d="M145.07,149.11l-1.7,1.45l-5.97-4.95l-1.55,1.4l4.04,5.49l-1.7,1.77l-9.88-13.88l3.15-2.26
			c1-0.72,2.33-1.24,3.53-1.1c3.08,0.37,4.39,2.44,4.25,4.85c-0.04,0.77-0.09,1.5-0.39,2.26L145.07,149.11z M134.42,139.34
			c-1.25-0.34-2.25,0.62-3.15,1.33l3.29,4.34c1.01-0.72,1.47-0.88,2.23-2.19C137.11,141.24,136.41,139.88,134.42,139.34"/>
		<path class="st1" d="M150.4,135.71c3.45,2.08,2.64,7.95-1.88,8.64c-1.22,0.18-2.65-0.19-3.27-0.57l0.77-1.75
			c0.75,0.16,1.5,0.43,2.22,0.3c2.94-0.56,2.81-3.61,1.1-4.87c-0.6-0.44-1.45-0.5-2.16-0.41c-1.98,0.21-3.25,1.69-5.45,1.83
			c-2.41,0.15-4.09-1.32-4.48-3.67c-0.21-1.24,0.09-2.44,0.71-3.41c1.27-2,3.98-2.27,5.95-1.1l-0.77,1.81
			c-1.07-0.57-2.96-0.57-3.67,0.55c-0.38,0.58-0.5,1.17-0.39,1.79c0.25,1.33,1.15,2.1,2.42,1.94c2.14-0.26,3.58-2.02,5.69-1.95
			C148.2,134.85,149.39,135.1,150.4,135.71"/>
		<polygon class="st1" points="157.68,133.57 156.44,135.1 142.22,126.18 143.47,124.66 		"/>
		<polygon class="st1" points="150.5,115.59 148.93,118.51 162.35,126.41 161.45,128.08 148.03,120.19 146.45,123.1 144.78,122.11 
			148.82,114.61 		"/>
		<polygon class="st1" points="152.96,104.5 161.15,111.82 166.62,114.16 165.95,116.01 160.89,114.04 149.22,113.78 149.79,111.91 
			157.93,112.04 152.16,106.74 		"/>
		<path class="st1" d="M40.75,145.47c-1.45,1.44-2.79,2.19-4.06,2.23c-1.25,0.04-2.39-0.46-3.41-1.5c-0.93-0.95-1.39-2.04-1.38-3.31
			c0-0.64,0.19-1.3,0.56-1.97l1.85,1.13c-0.16,0.32-0.24,0.62-0.25,0.91c-0.02,0.69,0.19,1.26,0.63,1.71
			c0.62,0.63,1.28,0.92,1.96,0.86c0.69-0.06,1.52-0.57,2.5-1.55l8.2-8.12l1.53,1.55L40.75,145.47z"/>
		<path class="st1" d="M68.64,142.63l-5.74-3.56l0.52-0.9l2.13,1.32l3.42-5.95l-2.14-1.32l0.46-0.8c0.81,0.5,1.45,0.78,1.93,0.84
			c0.48,0.07,0.88-0.12,1.21-0.57l1.23,0.76l-4.59,8l2.08,1.29L68.64,142.63z M85.77,139c0.09-0.46-0.06-0.87-0.48-1.24
			c-0.41-0.37-1.04-0.61-1.88-0.73c-0.77-0.11-1.43-0.06-1.97,0.14c-0.55,0.2-0.87,0.54-0.96,1.01c-0.07,0.34,0,0.64,0.21,0.9
			c0.2,0.27,0.53,0.53,1,0.79c0.2,0.11,0.51,0.27,0.93,0.46c0.43,0.2,0.81,0.36,1.17,0.49c0.67-0.22,1.15-0.48,1.44-0.77
			C85.5,139.76,85.68,139.41,85.77,139 M85.02,144.14c0.08-0.42,0.03-0.77-0.17-1.05c-0.21-0.29-0.65-0.6-1.32-0.96
			c-0.22-0.12-0.52-0.25-0.9-0.41c-0.38-0.16-0.81-0.34-1.28-0.54c-0.64,0.17-1.15,0.41-1.54,0.74c-0.38,0.32-0.62,0.72-0.72,1.19
			c-0.13,0.62,0.06,1.16,0.56,1.64c0.49,0.48,1.17,0.78,2.04,0.91c0.89,0.12,1.64,0.04,2.24-0.22
			C84.54,145.17,84.91,144.73,85.02,144.14 M81.47,146.67c-0.78-0.11-1.48-0.28-2.09-0.52c-0.61-0.24-1.12-0.53-1.51-0.88
			c-0.39-0.34-0.65-0.71-0.82-1.12c-0.14-0.41-0.18-0.82-0.1-1.25c0.11-0.55,0.45-1.02,1-1.42c0.54-0.4,1.28-0.67,2.2-0.83
			l0.01-0.04c-0.72-0.4-1.23-0.8-1.54-1.2c-0.3-0.4-0.4-0.86-0.29-1.38c0.15-0.77,0.73-1.34,1.73-1.73c1-0.39,2.19-0.48,3.56-0.29
			c1.44,0.2,2.54,0.6,3.3,1.21c0.77,0.6,1.07,1.29,0.92,2.04c-0.09,0.46-0.39,0.88-0.9,1.27c-0.5,0.39-1.17,0.65-2,0.79l-0.01,0.04
			c0.86,0.41,1.49,0.85,1.88,1.31c0.39,0.46,0.53,1.01,0.4,1.63c-0.18,0.87-0.82,1.53-1.91,1.99
			C84.21,146.75,82.93,146.88,81.47,146.67 M101.34,140.37c0-0.7-0.09-1.28-0.29-1.72c-0.2-0.44-0.46-0.78-0.81-1.02
			c-0.3-0.22-0.61-0.37-0.93-0.46c-0.31-0.08-0.65-0.12-1.03-0.12c-0.86,0-1.53,0.2-2.03,0.61c-0.51,0.41-0.76,0.99-0.76,1.76
			c0,0.43,0.08,0.8,0.24,1.08c0.17,0.28,0.44,0.52,0.82,0.72c0.26,0.14,0.56,0.24,0.9,0.29c0.33,0.05,0.69,0.07,1.07,0.07
			c0.45,0,0.92-0.05,1.44-0.15c0.51-0.11,0.96-0.25,1.34-0.42c0.01-0.07,0.02-0.16,0.03-0.27
			C101.33,140.64,101.34,140.51,101.34,140.37 M93.38,139.49c0-0.53,0.13-1.02,0.39-1.46c0.26-0.44,0.62-0.82,1.07-1.14
			c0.43-0.3,0.96-0.54,1.58-0.71c0.62-0.17,1.25-0.26,1.89-0.26c0.71,0,1.36,0.09,1.94,0.24c0.58,0.16,1.08,0.39,1.5,0.69
			c0.54,0.38,0.95,0.87,1.24,1.49c0.29,0.62,0.44,1.4,0.44,2.34c0,0.85-0.15,1.66-0.43,2.43c-0.29,0.77-0.71,1.4-1.27,1.91
			c-0.6,0.54-1.32,0.94-2.15,1.23c-0.84,0.28-1.87,0.42-3.09,0.42c-0.28,0-0.57-0.01-0.88-0.03c-0.31-0.03-0.61-0.07-0.88-0.12
			v-1.33h0.11c0.17,0.07,0.44,0.13,0.81,0.19c0.36,0.06,0.74,0.09,1.12,0.09c1.36,0,2.43-0.29,3.21-0.89
			c0.77-0.6,1.21-1.45,1.32-2.56c-0.55,0.25-1.08,0.43-1.58,0.55c-0.5,0.11-1.05,0.17-1.65,0.17c-0.58,0-1.09-0.04-1.57-0.12
			c-0.47-0.08-0.95-0.25-1.42-0.49c-0.56-0.28-0.98-0.64-1.26-1.07C93.53,140.62,93.38,140.1,93.38,139.49 M115.91,130.66
			l-0.38,10.65l-1.63,1.03l0.14-10.07l-6.22,3.02l-0.55-1.2l7.82-4.07L115.91,130.66z"/>
		<g>
			<path class="st1" d="M119.3,44.49c-1.25-0.6-0.37-0.83-0.3-2c0.06-1.01-0.59-2.18-0.39-2.89c0.54-1.92,3-1.19,4.36-0.2
				c0.24,0.17,0.46,0.65,0.64,1.12c0.44,1.17,0.9,2.81-0.44,3.64C122.02,44.88,120.39,45.01,119.3,44.49"/>
			<path class="st1" d="M104.82,38.82c-0.04-0.03-0.08-0.06-0.11-0.09c0.04-0.15,0.09-0.29,0.13-0.42c0.45-0.05,4.6-1.52,4.61-1.62
				c1.26-0.57,2.41-1.27,3.03-2.54c-2.77,0.2-5.66,1.49-8.36,1.04c-1.17-0.61-1.84-1.48-2.62-2.07c0.01-0.06,0.02-0.1,0.03-0.15
				c-1.18-1.26-1.02-2.47,0.65-2.61c2.53,1.25,7.09,0.34,9.84,0c0.63-0.12,2.39-0.3,2.96-0.71c1.45-3.38,1.93-7.02,2.96-10.34
				c1.46-2.23,2.57-0.2,3.79,1.39c0.05,0.22,0.34,0.54,0.54,1.07c0.04,0.01,0.08,0.01,0.14,0.03c0.4,1.17,0.46,1.68-0.77,2.39
				c-1.07,1.49-1.84,3.24-2.23,5.18c1.9,0.19,3.41-1.15,5.54-0.66c0.27,1.12,0,1.94-1.13,2.53c-1.74,0.37-3.59,0.62-5.54,0.99
				c-0.84,1.68-2.09,3.69-3.69,4.83c-0.23,0.17-1.35,0.79-1.6,0.87c-1.3,0.38-2.52,0.94-3.86,0.98
				C105.46,39.05,105.46,38.88,104.82,38.82"/>
		</g>
		<g>
			<path class="st1" d="M62.79,51.1c-1.53-0.09-3.32-1.19-4.41-1.89c-0.02-0.39-0.04-0.79-0.03-1.17c2.15-3.49,4.34-6.81,6.04-10.62
				c0.33-1.62,0.89-3.4,1.29-5.03c0.03-0.04,0.08-0.09,0.13-0.12c-0.03-0.06-0.05-0.09-0.06-0.13c0.54-0.91,0.81-1.21,1.86-0.47
				c0.38,0.82-0.77,2.3-0.93,3.27c0,1.73-0.07,3.51-0.23,5.33c-0.13,0.37-0.13,0.37-0.48,2.35c-0.58,0.95-1.01,3.06-1.08,4.24
				c-0.74,0.94-0.48,2.8-1.42,3.85C63.24,50.85,63.01,50.98,62.79,51.1"/>
			<path class="st1" d="M76.61,33.29c-1.91,0.65-2.92-0.34-4.38-1.03c-0.23-0.49-0.04-0.91-0.14-1.26c0.43-0.3,0.43-0.3,0.64-0.59
				c0.75-0.41,1.05-0.49,1.89-0.88c0.98-0.67,3.01-3.68,4.27-3.22C79.93,28.55,78.34,31.84,76.61,33.29"/>
			<path class="st1" d="M60.71,35.37c-0.97-0.35-2.25-3.2-2.67-4.1c-0.11-1.84,1.5-2.54,3.29-2.02c1.65,1,2.62,1.3,2.14,3.42
				C62.62,34.29,62.07,34.59,60.71,35.37"/>
			<path class="st1" d="M74.12,28.47c-0.54-0.81-0.07-3.18-0.59-3.5c-0.43,0.25-0.83,0.61-1.3,0.82c-1.35-0.1-3.14-1-3.1-2.24
				c0.46-1.28,0.24-0.91,1.51-1.51c1.02-1.04,2.06-2.07,3.11-3.11c1.96-1.22,3.39-0.45,4.33,1.58c0.15,1.49-0.33,2.89-0.79,4.29
				c-0.88,1.05-1.63,2.13-2.39,3.2C74.63,28.14,74.37,28.3,74.12,28.47"/>
			<path class="st1" d="M60.2,27.03c-0.6-0.21-0.49-0.5-0.41-0.99c-0.4-0.85-1.2-1.35-1.58-2.17c-0.32-1.65-0.84-2.1,0.14-3.33
				c1.16,0.04,5.3,0.45,5.24,2.71C63.12,24.82,61.5,26.32,60.2,27.03"/>
		</g>
		<path class="st1" d="M38.98,83.9c-1.79,1.23-6.1,0.42-5.53-2.16c-0.25-0.25-0.38-0.7-0.3-1c-0.05-0.04-0.1-0.06-0.13-0.07
			c-0.45-2.7-1.92-5.27-2.71-7.82c-0.42-0.8-0.92-1.42-0.6-2.3c0.6-0.15,1.25,0.49,1.75,0.99c0.26-0.06,0.56-0.71,0.68-1.14
			c-0.2-1.79-0.05-3.85-0.3-5.67c-0.46-0.39-0.92-0.8-1.35-1.21c-0.35,0.92-1.52,3.92-2.54,2.3c0.28-1.23,0.46-3.27-0.23-4.51
			c-0.89-0.97-2.16-1.64-2.55-2.7c0.18-1.47,2.43-1.82,3.75-1.23c1.07,0.09,1.05-1.92,2.26,1.4c0.03,0.54,0.55,0.88,1.14,1.18
			c0.1-0.12,0.19-0.23,0.29-0.36c-0.03-1.41-0.05-2.95,0.07-4.46c-1.32-1.33-2.43-2.45-3.21-4.06c0-1.55,1.76-2.44,3.28-2.9
			c0.49-0.83,0.5-1.55,0.47-2.62c0.1-0.34,0.1-0.34,0.47-0.87c0.53,0.04,0.96,0.23,1.55,0.58c1.21,1.58-1.34,6.37,1.05,6.75
			c0.48-0.81-0.18-1.66-0.55-2.33c0.14-1.19,1.98-2.68,3.27-3.14c1.92-0.17,1.8,0.91,1.81,2.56c0.09,0.23,0.18,0.46,0.28,0.67
			c2.43,1.77,2.43,1.77,5.81,4.05c0.64,1.01,0.9,1.59,1.15,2.79c0.04,0.02,0.08,0.04,0.11,0.06c-0.03,0.06-0.05,0.09-0.08,0.13
			c0.46,0.95,0.47,2.51-0.66,2.65c-2.77-1.88-5.52-4.01-8.22-5.72c-0.03,0.06-0.05,0.12-0.05,0.17c1.21,1.12,2.81,4.2,2.85,5.92
			c-0.66,1.11-1.89,1.56-3,1.26c-0.2-0.3-0.12-0.55-0.16-0.9c-0.82-1.44-3.19-2.81-4.4-3.63c-0.46,0.95,0.48,3.74,0.77,4.88
			c0.05,0.67,0.09,1.36,0.15,2.01c0.82,1.01,1.66,1.94,2.58,2.96c0.33,0.57,0.67,1.15,1.03,1.74c-0.03,0.05-0.06,0.09-0.07,0.13
			c0.4,0.86,1.28,3.39-0.37,3.4c-0.16-0.1-0.31-0.19-0.45-0.29c-0.52-1.31-1.52-2.73-2.6-3.5c-0.38,1.3,0.11,2.66-0.55,3.76
			c-0.54,0.53-1.15,1.01-1.63,1.27c-0.05-0.04-0.09-0.06-0.13-0.07c-0.34,0.14-0.75,0.24-0.79,0.44c0.47,0.6,0.95,1.22,1.44,1.81
			c1.53,2.66,3.22,5,5.24,7.43C39.21,83.24,39.17,83.42,38.98,83.9"/>
		<path class="st1" d="M27.27,72.8c-0.7,0-1.05-0.83-1.59-1.23c-1.92-0.55-3.36-0.94-3.99-2.84c0.08-0.17,0.18-0.34,0.28-0.51
			c1-0.37,2.86-0.6,4.11-0.66C28.47,68.09,27.65,71.08,27.27,72.8"/>
		<path class="st1" d="M22.26,67.15c-0.41,0.3-0.48,0.23-0.68,0.21c-0.26-0.45-0.35-0.78-0.8-0.97c-2.12-0.05-4.31-1.64-3.92-3.8
			c0.38-0.44,0.8-0.17,1.61,0.07c1.79-0.35,4.45-1.47,4.56,1.4C22.85,65.1,22.53,66.16,22.26,67.15"/>
		<path class="st0" d="M131.66,69.87l-20.98-0.02c-6.12,0-9.26,6-11.58,11.43l-3.54-7.96l5.94-2.19C98.03,67.84,87.2,66.05,85.77,71
			l-2.55,10.28c-2.02-4.63-4.86-11.4-11.28-11.41l-21.29,0c2.77,4.9,5.41,6.66,15.2,6.24l1.28,3.37L56.4,79.54
			c3.17,5.84,5,6.09,13.64,5.84l1.83,4.04l-8.44,0.3c1.82,4.13,3.72,5.9,10.97,5.57l1.41,3.58l-6.72,0.04
			c2.52,4.16,3.77,6.07,9.09,5.6l1.43,3.9h-4.66c2.01,4.49,4.35,4.68,7.21,5.13c2.57,0.4,2.94,5.21-0.06,6.76l9.03,14.66l9.04-14.67
			c-3.01-1.55-2.63-6.36-0.06-6.76c2.86-0.45,5.2-0.63,7.21-5.13h-4.65l1.42-3.9c5.32,0.47,6.57-1.44,9.09-5.59l-6.71-0.04
			l1.41-3.58c7.25,0.34,9.16-1.44,10.97-5.57l-8.44-0.3l1.83-4.04c8.64,0.24,10.47,0,13.64-5.85l-10.74-0.04l1.29-3.38
			C126.24,76.52,128.89,74.76,131.66,69.87"/>
		<path class="st0" d="M163.62,59.83l0.08-0.18c0.3-0.75,0.29-1.07,0.22-1.19c-0.09-0.18-0.42-0.27-0.95-0.41
			c-0.14-0.04-0.3-0.06-0.48-0.09l-0.29-0.04l-0.09-0.21c-0.1-0.11-0.21-0.22-0.34-0.31l-0.41-0.14l-0.09-0.05l0.53-0.4
			c0.37-0.28,0.79-0.42,1.26-0.57l0.05-0.12l0.2,0.08c0.74-0.64,1.23-1.58,1.3-2.56c-0.23-0.31-0.6-0.45-1.18-0.45
			c-0.74,0.01-1.63,0.3-2.43,0.54c-0.49,0.15-1.1,0.35-1.63,0.45l-0.19-0.09c-1.34-0.64-1.4-0.67-4.2-2.14
			c-0.2,0.13-0.36,0.33-0.45,0.56c-0.17,0.4-0.14,0.86,0.08,1.29l0.26,0.21l0.02,0.02l0,0.01l-0.66,0.35
			c-0.15,0.08-0.19,0.1-0.17,0.1h0.01l-0.19,0.18c0.02,0.07,0.06,0.2,0.16,0.38l0.05,0.3c-0.01,0.26-0.06,0.37-0.27,0.61l-0.08,0.32
			l-0.02,0.04l0,0l-0.41-0.32c-0.53-0.42-0.58-0.46-0.98-0.83c-0.11-0.02-0.21-0.03-0.34-0.03c-0.3,0.01-0.55,0.11-0.66,0.26
			c-0.11,0.16-0.1,0.38,0.03,0.67l-0.04,0.16c-0.09,0.4-0.43,1.08-1.68,1.1l-0.64-0.01c-0.12,0-0.24,0.01-0.44,0.1
			c-0.01,0.85,0.36,0.91,1.26,1.05c0.33,0.05,0.7,0.11,1.18,0.22c0.08-0.03,0.17-0.05,0.25-0.05c0.19,0,0.34,0.08,0.52,0.16
			l0.67,0.26l0.23,0.07l0.11,0.05l-0.81,0.4c-0.31,0.15-0.51,0.26-0.82,0.58c-0.06,0.23-0.18,0.46-0.37,0.68l-0.03,0.18l-0.34-0.08
			c-0.6-0.15-1.2-0.3-1.8-0.45l-0.93-0.24c-1.65-0.43-3.69-0.97-5.62-1.3c-0.46-0.16-0.9-0.25-1.34-0.33l-0.91-0.11l-0.04,0.26
			c0.22,0.18,0.52,0.4,0.98,0.69l0.06,0.15c0.26,0.63,0.69,1.42,1.69,1.98c0.66,0.11,1.35,0.19,2.17,0.29
			c2.4,0.28,4.88,0.56,6.83,2.02l0.51,0.26l0.13-0.01l0.02,0.01v0l-0.72,0.36c-0.18,0.09-0.35,0.19-0.57,0.39l-0.22-0.05
			c-2.32-0.51-2.32-0.51-3.15-0.78c-0.83-0.54-1.24-0.7-1.68-0.7c-0.34,0-0.73,0.15-1.39,0.54c-0.04,0.02-0.06,0.03-0.1,0.05
			L144.27,64c-0.02,0.01-0.04,0.02-0.06,0.04l-0.23-0.09c-0.25-0.09-0.27-0.1-0.96-0.2c-0.64-0.23-1.3-0.44-2.01-0.68
			c-2-0.65-4.06-1.33-5.78-2.46c-0.51-0.42-0.84-0.81-1.12-1.14c-0.09-0.11-0.15-0.18-0.21-0.18c-0.01,0-0.02,0-0.02,0l-0.17-0.21
			c-0.13,0.04-0.34,0.23-0.69,0.61c-0.37,1.14,0.66,3.85,1.58,4.64c0.65,0.28,1.34,0.42,2.07,0.55c1.22,0.23,2.47,0.47,3.67,1.46
			l0.32,0.08l0.03,0.01l0,0l-0.31,0.41c-0.4,0.52-0.85,0.95-1.37,1.42l-0.23,0.2c-0.15,0.12-0.31,0.25-0.41,0.39l-0.23,0.02
			c-0.17,0.03-0.32,0.04-0.53,0.05c-0.89,0-1.66-0.43-2.34-0.81c-0.22-0.12-0.44-0.24-0.75-0.32l-0.12,0.23
			c0.93,1.6,2.21,3.06,3.89,4.46l0.14,0.23c0.21,0.11,0.41,0.16,0.63,0.16h0.03c1.21-0.02,2.53-1.69,3.49-2.91
			c0.21-0.27,0.4-0.51,0.62-0.74l0.24-0.18c0.91-0.67,0.98-0.73,0.95-0.74l0.23,0.06c0.77,0.21,1.27,0.51,2,0.92
			c0.72-0.31,1.46-1.04,1.39-1.83l-0.3-0.27c-0.43-0.4-0.86-0.8-1.31-1.19l-0.23-0.04l0.15-0.37c0.16-0.39,0.4-0.62,0.71-0.94
			l0.03-0.15l0.31,0.07c1.3,0.29,2.46,0.65,3.89,1.1l1.24,0.41l0.31,0.23c0.72,0.53,1.23,0.92,2.04,0.92c0.13,0,0.25-0.01,0.46-0.08
			c0.77-0.79,1.2-1.32,1.51-1.93l0,0c0.01-0.02,0.02-0.03,0.03-0.04c-0.24-0.35-0.35-0.45-0.39-0.45l0.23-0.27
			c0.07-0.09,0.15-0.15,0.37-0.28c2.11-0.67,4.4-1.5,6.08-2.1c1.01-0.64,1.12-0.7,0.76-1.64C163.82,60.27,163.74,60.08,163.62,59.83
			 M155.41,61.08l0.34-0.31c0.47-0.43,0.68-0.64,0.73-0.85c-0.02-0.08-0.12-0.19-0.33-0.34l-0.11-0.02
			c-0.07,0.01-0.13,0.02-0.23,0.02c-0.38,0-0.61-0.18-0.74-0.33l-0.16-0.12l0.01-0.18l0.13-0.43l-0.08-0.03l0.46-0.15
			c1.54-0.51,1.54-0.51,1.8-0.66l0.12-0.2l0.3,0.25c0.32,0.27,1.4,1.26,1.57,2.51l-0.15,0.18c-0.83,0.98-1.94,1.16-3.02,1.19
			l-0.29,0.07l-0.15-0.46l-0.2-0.13L155.41,61.08z"/>
		<path class="st0" d="M146.45,57.38c-0.47,0-0.91-0.14-1.3-0.43c-0.25-1,0.49-2.07,1.03-2.87c0.19-0.27,0.33-0.47,0.44-0.66
			l0.09-0.23l0.18-0.35c0.22-0.42,0.43-0.84,0.63-1.31c0.08-0.24,0.14-0.47,0.2-0.7c0.33-1.3,0.58-2.13,1.24-2.36
			c0.51,0.08,0.76,0.16,0.88,0.34c0.13,0.19,0.08,0.46-0.02,0.95l-0.09,0.18c0.07,0.17,0.1,0.39,0.13,0.62
			c0.15,0.77,0.18,1.57,0.1,2.3l-0.04,0.29c-0.05,0.28-0.12,0.52-0.2,0.77c-0.3,0.93-0.64,1.99-1.32,2.6l-0.28,0.26l-0.18,0.11
			c-0.47,0.3-0.97,0.46-1.46,0.47H146.45z"/>
		<path class="st0" d="M146.45,57.34h0.04c0.48-0.01,0.97-0.17,1.43-0.47l0.18-0.11l0.28-0.25c0.67-0.61,1.01-1.65,1.31-2.58
			c0.08-0.25,0.16-0.49,0.2-0.77l0.04-0.29c0.09-0.8,0.03-1.59-0.1-2.29c-0.03-0.22-0.06-0.44-0.09-0.65l-0.04,0.01l0.09-0.17
			c0.09-0.47,0.14-0.74,0.03-0.92c-0.11-0.17-0.35-0.24-0.84-0.33c-0.63,0.23-0.88,1.02-1.18,2.25c-0.07,0.25-0.13,0.51-0.22,0.79
			c-0.21,0.48-0.42,0.89-0.64,1.32l-0.19,0.34l-0.09,0.24c-0.11,0.19-0.25,0.4-0.44,0.66c-0.54,0.78-1.28,1.85-1.05,2.81
			C145.56,57.19,145.99,57.34,146.45,57.34"/>
		<path class="st0" d="M141.82,56.19c-0.23,0-0.52-0.13-1.06-0.47c-0.71-1.6,1.83-3.41,2.12-3.61c0.41,0.1,0.65,0.32,0.79,0.71
			c0.29,0.81,0.08,1.95-0.47,2.61C142.44,55.97,142.12,56.18,141.82,56.19L141.82,56.19z"/>
		<path class="st0" d="M141.82,56.15L141.82,56.15c0.28-0.01,0.61-0.22,1.35-0.74c0.54-0.64,0.74-1.77,0.46-2.56
			c-0.13-0.38-0.35-0.6-0.72-0.7c-0.29,0.2-2.8,2-2.12,3.54C141.31,56.02,141.6,56.15,141.82,56.15"/>
	</g>
</g>
</svg>
